<svg id="Capa_1" enable-background="new 0 0 512 512" viewBox="0 0 512 512" xmlns="http://www.w3.org/2000/svg">
  <g>
    <path d="m491.034 71.692-12.217-59.74c-1.699-8.101-9.756-13.33-17.739-11.631l-95.405 20.757.09 51.746 47.615 30.292 66.011-13.671c8.243-1.735 13.298-9.759 11.645-17.753z" fill="#373366"/>
    <path d="m365.673 21.078-88.16 18.257.164 51.871 47.542 30.166 88.158-18.256z" fill="#d9ebff"/>
    <path d="m277.513 39.335-44.074 9.128-44.075 9.128.714 52.82 46.989 29.216 44.077-9.127 44.075-9.128z" fill="#554d99"/>
    <path d="m277.513 39.335-44.074 9.128 47.705 82.037 44.075-9.128z" fill="#373366"/>
    <path d="m189.364 57.591-88.158 18.255-3.222 46.051 50.926 35.988 88.157-18.258z" fill="#eff6ff"/>
    <path d="m488.5 181h-70.803l-48.594 55.781 13.593 49.219h89.916l30.888-15v-75c0-8.291-6.709-15-15-15z" fill="#d9ebff"/>
    <path d="m327.691 181-48.214 54.643 13.215 50.357h90.004l35.001-105z" fill="#373366"/>
    <path d="m263.5 181h-25.804l-47.363 52.086 12.361 52.914h60.806 29.192l34.999-105z" fill="#eff6ff"/>
    <path d="m327.691 181h-64.191v105h29.192z" fill="#d9ebff"/>
    <path d="m147.696 181-46.89 50.664 11.886 54.336h90.002l35.002-105z" fill="#554d99"/>
    <path d="m38.5 181c-8.291 0-15 6.709-15 15v75l33.217 15h55.975l35.004-105z" fill="#eff6ff"/>
    <g>
      <g>
        <path d="m503.5 271v226c0 8.399-6.599 15-15 15h-450c-8.401 0-15-6.601-15-15v-226z" fill="#b799ff"/>
      </g>
    </g>
    <path d="m503.5 271v226c0 8.399-6.599 15-15 15h-225v-241z" fill="#9b80ff"/>
    <path d="m101.206 75.846-30.972 6.414-49.777 10.309c-3.896.82-7.31 3.135-9.492 6.46-2.183 3.34-2.959 7.397-2.153 11.294l12.217 58.74c1.657 7.927 9.393 13.301 17.739 11.631l79.171-16.395 30.972-6.414z" fill="#554d99"/>
    <path d="m398.5 421h-45v-60h45c8.401 0 15-6.601 15-15 0-8.401-6.599-15-15-15h-270c-8.401 0-15 6.599-15 15 0 8.399 6.599 15 15 15h45v60h-45c-8.401 0-15 6.599-15 15 0 8.399 6.599 15 15 15h270c8.401 0 15-6.601 15-15 0-8.401-6.599-15-15-15zm-75 0h-120v-60h120z" fill="#eff6ff"/>
    <path d="m413.5 436c0 8.399-6.599 15-15 15h-135v-30h60v-60h-60v-30h135c8.401 0 15 6.599 15 15 0 8.399-6.599 15-15 15h-45v60h45c8.401 0 15 6.599 15 15z" fill="#d9ebff"/>
  </g>
</svg>