<svg width="32" height="32" viewBox="0 0 32 32" fill="none" xmlns="http://www.w3.org/2000/svg">
  <path fill-rule="evenodd" clip-rule="evenodd" d="M22.0182 28.6662L10.8877 28.6662C6.79924 28.6662 3.66271 27.1895 4.55363 21.2459L5.59101 13.191C6.1402 10.2253 8.03189 9.09033 9.69169 9.09033L23.263 9.09033C24.9472 9.09033 26.7291 10.3108 27.3637 13.191L28.4011 21.2459C29.1577 26.5183 26.1066 28.6662 22.0182 28.6662Z" stroke="white" stroke-width="2" stroke-linecap="round" stroke-linejoin="round"/>
  <path opacity="0.4" d="M22.2011 8.79765C22.2011 5.61622 19.6221 3.03716 16.4407 3.03716V3.03716C14.9087 3.03067 13.4372 3.63471 12.3516 4.71571C11.266 5.79672 10.6557 7.26563 10.6558 8.79765V8.79765" stroke="white" stroke-width="2" stroke-linecap="round" stroke-linejoin="round"/>
  <path d="M20.3951 14.8021H20.3341" stroke="white" stroke-width="2" stroke-linecap="round" stroke-linejoin="round"/>
  <path d="M12.6207 14.8021H12.5597" stroke="white" stroke-width="2" stroke-linecap="round" stroke-linejoin="round"/>
</svg>
